<?xml version="1.0" standalone="no"?>
<!DOCTYPE svg PUBLIC "-//W3C//DTD SVG 20010904//EN"
 "http://www.w3.org/TR/2001/REC-SVG-20010904/DTD/svg10.dtd">
<svg version="1.0" xmlns="http://www.w3.org/2000/svg"
 width="900.000000pt" height="506.000000pt" viewBox="0 0 900.000000 506.000000"
 preserveAspectRatio="xMidYMid meet">

<g transform="translate(0.000000,506.000000) scale(0.100000,-0.100000)"
fill="#000000" stroke="none">
<path d="M5730 3080 c1 -203 3 -370 5 -370 2 0 26 24 54 53 l51 52 0 318 0
317 -55 0 -55 0 0 -370z"/>
<path d="M5930 3160 l0 -289 60 37 59 37 1 253 0 252 -60 0 -60 0 0 -290z"/>
<path d="M2741 3149 c-255 -50 -477 -218 -587 -445 -59 -121 -78 -222 -71
-369 6 -110 30 -227 48 -233 5 -2 7 -8 4 -12 -7 -12 59 -144 98 -195 50 -67
148 -155 219 -197 37 -22 73 -41 80 -42 7 -1 22 -7 33 -13 102 -54 383 -66
524 -22 128 39 226 92 299 162 l42 41 0 323 0 323 -305 0 -305 0 0 -55 0 -55
245 0 245 0 0 -249 0 -250 -45 -36 c-53 -44 -164 -89 -259 -105 -102 -18 -296
-8 -373 19 -111 40 -253 143 -310 226 -82 121 -115 219 -121 368 -6 148 7 217
63 332 89 185 264 322 473 371 116 28 292 20 457 -20 6 -1 24 -10 42 -19 18
-9 34 -17 38 -17 3 0 5 29 5 64 l0 63 -57 16 c-32 9 -85 21 -117 26 -70 13
-301 13 -365 0z"/>
<path d="M2738 2942 c-111 -32 -194 -80 -278 -162 -129 -127 -176 -250 -167
-435 8 -161 62 -282 172 -390 104 -102 238 -155 394 -155 107 0 267 32 256 50
-3 6 1 7 9 4 8 -3 33 6 55 20 l41 26 0 180 0 180 -200 0 -200 0 0 -55 0 -55
145 0 145 0 0 -95 0 -94 -52 -16 c-109 -33 -259 -36 -356 -6 -98 30 -195 119
-249 229 l-38 76 0 130 c0 128 1 133 33 198 66 135 196 230 360 263 67 14 98
15 184 6 109 -11 205 -38 250 -71 15 -11 30 -20 33 -20 3 0 5 30 5 66 l0 65
-43 19 c-83 37 -161 52 -297 56 -111 3 -147 1 -202 -14z"/>
<path d="M4040 2914 c-94 -18 -205 -72 -271 -132 -62 -56 -111 -120 -102 -135
3 -5 2 -7 -4 -4 -13 8 -37 -38 -28 -54 5 -7 4 -10 -3 -5 -7 4 -19 -18 -34 -61
-21 -65 -22 -83 -26 -480 l-3 -413 60 0 60 0 3 418 c3 443 1 417 51 522 12 25
117 156 117 146 0 -3 21 7 48 23 92 57 219 80 334 61 40 -7 88 -20 105 -30
l32 -19 38 46 c36 43 36 46 18 59 -52 38 -130 56 -250 60 -66 1 -131 0 -145
-2z"/>
<path d="M4776 2905 c-92 -24 -192 -82 -268 -157 -37 -37 -68 -74 -68 -83 0
-8 -4 -15 -8 -15 -10 0 -37 -50 -34 -62 1 -5 -2 -8 -8 -8 -5 0 -19 -30 -31
-67 -30 -93 -38 -317 -15 -415 33 -142 108 -260 221 -346 38 -29 73 -51 85
-54 8 -2 20 -8 27 -14 6 -6 49 -22 95 -34 68 -18 100 -21 173 -17 50 3 105 10
123 17 31 12 32 13 32 73 0 34 -4 58 -8 52 -4 -5 -16 -11 -27 -12 -11 -2 -48
-7 -82 -12 -227 -34 -448 114 -519 348 -20 64 -19 292 2 362 36 121 141 243
257 299 174 84 385 50 526 -84 32 -31 61 -53 65 -48 4 4 6 2 5 -3 -5 -19 12
-55 23 -49 6 4 8 2 5 -3 -4 -6 0 -23 8 -39 40 -82 45 -135 45 -526 l0 -378 61
0 60 0 -4 398 c-4 421 -5 429 -56 546 -26 60 -60 108 -71 101 -4 -3 -7 1 -6 8
4 42 -160 170 -265 207 -83 29 -256 37 -343 15z"/>
<path d="M6180 2901 c-72 -19 -113 -39 -178 -84 -59 -40 -148 -119 -144 -129
1 -4 -2 -7 -7 -6 -14 5 -151 -146 -146 -160 3 -7 1 -10 -5 -7 -5 3 -30 -20
-55 -52 l-45 -58 0 -85 1 -85 20 25 c11 14 34 43 52 65 136 169 299 335 387
395 199 135 456 105 614 -71 99 -110 126 -191 126 -379 0 -133 -7 -172 -47
-260 -29 -64 -140 -178 -205 -211 -136 -69 -284 -71 -425 -5 -39 19 -75 31
-79 28 -4 -4 -4 -2 -1 4 4 6 -7 22 -24 35 -16 12 -47 46 -67 73 -20 28 -40 54
-45 57 -5 3 -8 8 -6 10 1 2 -4 22 -11 44 l-13 39 -38 -44 c-44 -51 -46 -58
-22 -108 58 -126 177 -225 333 -278 84 -29 272 -27 362 4 145 50 289 177 347
306 50 109 56 144 56 316 -1 146 -3 173 -24 230 -88 249 -310 411 -560 409
-49 0 -114 -8 -151 -18z m-350 -381 c0 -5 -5 -10 -11 -10 -5 0 -7 5 -4 10 3 6
8 10 11 10 2 0 4 -4 4 -10z"/>
<path d="M4043 2696 c-103 -33 -185 -106 -232 -205 l-26 -56 -3 -402 -3 -403
55 0 55 0 3 383 c3 372 4 383 26 431 12 27 37 63 55 80 17 17 31 33 30 36 -1
3 6 6 15 7 9 1 42 9 72 18 51 15 135 14 176 -2 12 -5 37 35 38 62 1 6 8 15 16
22 13 10 10 13 -15 24 -44 18 -211 22 -262 5z"/>
<path d="M4808 2697 c-104 -39 -185 -112 -234 -212 -28 -58 -29 -65 -29 -200
0 -140 8 -201 24 -190 5 3 7 -3 4 -13 -6 -23 58 -117 78 -116 9 1 16 -6 15
-15 -1 -21 84 -77 147 -96 88 -26 225 -16 260 20 8 8 17 11 21 8 3 -4 6 24 6
61 l0 66 -22 -14 c-42 -27 -136 -48 -181 -41 -104 17 -180 72 -219 159 -19 44
-22 68 -22 166 0 102 2 120 24 164 95 188 354 206 465 31 19 -30 35 -64 35
-75 0 -12 3 -19 8 -17 4 3 6 -165 4 -374 l-2 -379 60 0 60 0 0 353 c0 213 -4
377 -11 413 -23 124 -89 215 -203 275 -55 30 -71 34 -156 36 -63 2 -107 -1
-132 -10z"/>
<path d="M6213 2691 c-97 -36 -175 -101 -340 -286 -109 -122 -119 -133 -199
-232 l-74 -92 0 -92 0 -93 33 44 c29 38 87 111 182 225 185 223 338 379 400
406 137 60 290 5 351 -125 21 -44 24 -66 24 -167 0 -131 -9 -166 -57 -226 -90
-113 -260 -129 -359 -34 -12 11 -25 17 -30 13 -4 -4 -4 -2 -1 4 4 7 0 18 -9
25 -23 19 -66 107 -79 162 -6 26 -15 47 -20 46 -6 -2 -27 -23 -48 -48 -43 -53
-43 -62 3 -156 33 -68 94 -145 116 -145 8 0 14 -4 14 -8 0 -10 50 -37 63 -34
4 1 7 -2 7 -7 0 -16 101 -34 170 -29 41 3 88 15 121 30 61 28 132 85 123 99
-3 5 0 8 7 7 20 -5 75 95 89 161 8 38 11 102 8 173 -4 103 -8 119 -38 181 -40
81 -108 148 -188 185 -76 35 -193 41 -269 13z"/>
</g>
</svg>
